<svg xmlns="http://www.w3.org/2000/svg" viewBox="0 0 45.3 50" enable-background="new 0 0 45.3 50">
    <g fill="#010101">
        <path d="M8.4 28.4h18.9v3.2H8.4zM8.4 18.9h18.9v3.2H8.4zM8.4 9.5h18.9v3.2H8.4zM43.2 7.4h-7.4V2.1C35.8.8 35 0 33.7 0H2.1C.8 0 0 .8 0 2.1V41c0 1.3.8 2.1 2.1 2.1h7.4v4.7c0 1.3.8 2.1 2.1 2.1h31.6c1.3 0 2.1-.8 2.1-2.1V9.5c0-1.3-.8-2.1-2.1-2.1zm-40 31.5V4.2c0-.7.4-1.1 1.1-1.1h27.4c.7 0 1.1.4 1.1 1.1v34.7c0 .7-.4 1.1-1.1 1.1H4.2c-.6 0-1-.4-1-1.1zm38.9 6.9c0 .7-.4 1.1-1.1 1.1H14.2c-.7 0-1.1-.4-1.1-1.1v-2.6h20.5c1.3 0 2.1-.8 2.1-2.1v-30H41c.7 0 1.1.4 1.1 1.1v33.6z"/>
    </g>
</svg>
