<?xml version="1.0" encoding="utf-8"?>
<!-- Generator: Adobe Illustrator 18.1.0, SVG Export Plug-In . SVG Version: 6.00 Build 0)  -->
<svg version="1.1" id="Layer_1" xmlns="http://www.w3.org/2000/svg" xmlns:xlink="http://www.w3.org/1999/xlink" x="0px" y="0px"
	 viewBox="0 0 23.9 20" enable-background="new 0 0 23.9 20" xml:space="preserve">
<g>
	<path fill="#DDDDDC" d="M23.5,10.3l0.4-0.4l-0.4-0.4L19,5l-0.8,0.8l4.5,4.4l0-0.8L18.2,14l0.8,0.8L23.5,10.3z"/>
	<path fill="#DDDDDC" d="M22,10.4h0.6V9.2H22H10.3H9.7v1.2h0.6H22z"/>
	<path fill="#DDDDDC" d="M15.1,1.7c-0.4-0.2-0.8-0.5-1.2-0.7c-1.3-0.6-2.6-1-4-1C7.7,0,5.3,0.8,3.4,2.4C1.3,4.2,0,6.8,0,10
		c0,5.8,4.5,10,10,10c1.4,0,2.8-0.4,4-1c0.4-0.2,0.8-0.4,1.2-0.7c0.2-0.1,0.4-0.3,0.4-0.3l-0.7-0.9c0,0,0,0-0.1,0.1
		c-0.1,0.1-0.2,0.1-0.3,0.2c-0.3,0.2-0.7,0.4-1,0.6c-1.1,0.5-2.3,0.9-3.5,0.9c-4.8,0-8.8-3.7-8.8-8.8c0-2.9,1.1-5.2,3-6.7
		C5.8,1.9,8,1.2,10,1.2c1.1,0,2.3,0.3,3.4,0.9c0.4,0.2,0.8,0.4,1.1,0.6c0.1,0.1,0.2,0.1,0.3,0.2c0,0,0.1,0.1,0.1,0.1L15.6,2
		C15.5,1.9,15.3,1.8,15.1,1.7z"/>
</g>
</svg>
