<svg xmlns="http://www.w3.org/2000/svg" viewBox="0 0 20 20" enable-background="new 0 0 20 20">
    <path fill="#DCDCDC" d="M2.1 2.1C3.4.7 5.2 0 7.1 0s3.7.7 5 2.1c1.3 1.3 2.1 3.1 2.1 5 0 1.1-.3 2.2-.8 3.2l5.8 5.8c.9.9.9 2.3 0 3.2-.4.4-1 .7-1.6.7-.6 0-1.2-.2-1.6-.7l-5.8-5.8c-1 .5-2.1.8-3.2.8-1.9 0-3.7-.7-5-2.1C.7 10.8 0 9 0 7.1c0-1.9.7-3.7 2.1-5zm5 9.2c1.1 0 2.1-.4 2.9-1.2.8-.8 1.2-1.8 1.2-2.9 0-1.1-.4-2.1-1.2-2.9C9.3 3.4 8.2 3 7.1 3 6 3 5 3.4 4.2 4.2 3.4 5 3 6 3 7.1c0 1.1.4 2.1 1.2 2.9.8.8 1.8 1.3 2.9 1.3z"/>
</svg>
